HIERARCHY
ROOT Hips
{
	OFFSET 0.000000 83.214638 0.000000
	CHANNELS 6 Xposition Yposition Zposition Xrotation Yrotation Zrotation
	JOINT Pelvis
	{
		OFFSET 0.000000 0.000000 0.000000
		CHANNELS 3 Xrotation Yrotation Zrotation
		JOINT LeftUpLeg
		{
			OFFSET 8.479700 -4.795502 -0.379100
			CHANNELS 3 Xrotation Yrotation Zrotation
			JOINT LeftLeg
			{
				OFFSET 0.024144 -32.555107 0.112900
				CHANNELS 3 Xrotation Yrotation Zrotation
				JOINT LeftFoot
				{
					OFFSET -0.024144 -32.638630 -3.012600
					CHANNELS 3 Xrotation Yrotation Zrotation
					JOINT LeftToeBase
					{
						OFFSET 0.970200 -13.225400 11.864200
						CHANNELS 3 Xrotation Yrotation Zrotation
						End Site
						{
							OFFSET 0.000000 12.319262 0.000000
						}
					}
					JOINT LFootTongue
					{
						OFFSET 1.142400 -1.059800 6.665200
						CHANNELS 3 Xrotation Yrotation Zrotation
						End Site
						{
							OFFSET 0.000000 12.319262 0.000000
						}
					}
				}
				JOINT LeftPantLeg
				{
					OFFSET 0.918482 -16.533964 -2.284700
					CHANNELS 3 Xrotation Yrotation Zrotation
					End Site
					{
						OFFSET 0.350399 24.744368 0.000000
					}
				}
			}
		}
		JOINT RightUpLeg
		{
			OFFSET -8.479700 -4.795502 -0.379100
			CHANNELS 3 Xrotation Yrotation Zrotation
			JOINT RightLeg
			{
				OFFSET -0.023144 -32.555092 0.112900
				CHANNELS 3 Xrotation Yrotation Zrotation
				JOINT RightFoot
				{
					OFFSET 0.023144 -32.638641 -3.012700
					CHANNELS 3 Xrotation Yrotation Zrotation
					JOINT RightToeBase
					{
						OFFSET -0.970200 -13.225400 11.864200
						CHANNELS 3 Xrotation Yrotation Zrotation
						End Site
						{
							OFFSET 0.000000 12.319244 0.000000
						}
					}
					JOINT RFootTongue
					{
						OFFSET -1.142200 -1.059800 6.665200
						CHANNELS 3 Xrotation Yrotation Zrotation
						End Site
						{
							OFFSET 0.000000 12.319243 0.000000
						}
					}
				}
				JOINT RightPantLeg
				{
					OFFSET -0.919482 -16.533978 -2.284800
					CHANNELS 3 Xrotation Yrotation Zrotation
					End Site
					{
						OFFSET -0.350400 24.744419 0.000000
					}
				}
			}
		}
	}
	JOINT Spine
	{
		OFFSET 0.000000 7.722000 1.166200
		CHANNELS 3 Xrotation Yrotation Zrotation
		JOINT Spine1
		{
			OFFSET 0.000000 12.024101 0.248800
			CHANNELS 3 Xrotation Yrotation Zrotation
			JOINT Spine2
			{
				OFFSET 0.000000 11.502998 -0.491200
				CHANNELS 3 Xrotation Yrotation Zrotation
				JOINT Neck
				{
					OFFSET 0.000000 18.430702 -3.123100
					CHANNELS 3 Xrotation Yrotation Zrotation
					JOINT Head
					{
						OFFSET 0.000000 9.051102 1.034000
						CHANNELS 3 Xrotation Yrotation Zrotation
						JOINT HairB
						{
							OFFSET 0.208400 24.786102 24.822300
							CHANNELS 3 Xrotation Yrotation Zrotation
							End Site
							{
								OFFSET 0.000000 32.263779 0.000000
							}
						}
						JOINT HairA
						{
							OFFSET -7.081100 24.428299 23.196600
							CHANNELS 3 Xrotation Yrotation Zrotation
							End Site
							{
								OFFSET 0.000000 32.263779 0.000000
							}
						}
						JOINT Hat
						{
							OFFSET 16.728800 15.048294 -15.439601
							CHANNELS 3 Xrotation Yrotation Zrotation
							End Site
							{
								OFFSET 0.000000 32.263779 0.000000
							}
						}
					}
				}
				JOINT LeftShoulder
				{
					OFFSET 6.197800 13.665199 -4.064700
					CHANNELS 3 Xrotation Yrotation Zrotation
					JOINT LeftArm
					{
						OFFSET 7.778100 -0.187103 -1.709300
						CHANNELS 3 Xrotation Yrotation Zrotation
						JOINT LeftForeArm
						{
							OFFSET 22.049376 0.000000 0.000000
							CHANNELS 3 Xrotation Yrotation Zrotation
							JOINT LeftHand
							{
								OFFSET 23.009392 0.000000 0.000000
								CHANNELS 3 Xrotation Yrotation Zrotation
								JOINT LeftHandThumb1
								{
									OFFSET 3.507191 -2.063065 3.133727
									CHANNELS 3 Xrotation Yrotation Zrotation
									JOINT LeftHandThumb2
									{
										OFFSET 3.101337 -1.790558 1.790558
										CHANNELS 3 Xrotation Yrotation Zrotation
										JOINT LeftHandThumb3
										{
											OFFSET 3.058640 -1.765907 1.765906
											CHANNELS 3 Xrotation Yrotation Zrotation
											End Site
											{
												OFFSET -0.415260 3.926476 -0.049563
											}
										}
									}
								}
								JOINT LeftHandIndex1
								{
									OFFSET 11.334419 -0.901459 3.706815
									CHANNELS 3 Xrotation Yrotation Zrotation
									JOINT LeftHandIndex2
									{
										OFFSET 3.283112 0.000000 0.000000
										CHANNELS 3 Xrotation Yrotation Zrotation
										JOINT LeftHandIndex3
										{
											OFFSET 3.323853 0.000000 0.000000
											CHANNELS 3 Xrotation Yrotation Zrotation
											End Site
											{
												OFFSET -1.135597 3.097809 0.402452
											}
										}
									}
								}
								JOINT LeftHandMiddle1
								{
									OFFSET 11.335861 0.000000 0.000000
									CHANNELS 3 Xrotation Yrotation Zrotation
									JOINT LeftHandMiddle2
									{
										OFFSET 3.410492 0.000000 0.000000
										CHANNELS 3 Xrotation Yrotation Zrotation
										JOINT LeftHandMiddle3
										{
											OFFSET 3.312172 0.000000 0.000000
											CHANNELS 3 Xrotation Yrotation Zrotation
											End Site
											{
												OFFSET -1.150200 3.080154 0.400270
											}
										}
									}
								}
								JOINT LeftHandRing1
								{
									OFFSET 11.514786 -0.013176 -3.003090
									CHANNELS 3 Xrotation Yrotation Zrotation
									JOINT LeftHandRing2
									{
										OFFSET 3.053307 0.000000 0.000000
										CHANNELS 3 Xrotation Yrotation Zrotation
										JOINT LeftHandRing3
										{
											OFFSET 3.295807 0.000000 0.000000
											CHANNELS 3 Xrotation Yrotation Zrotation
											End Site
											{
												OFFSET -1.281006 3.013344 0.375733
											}
										}
									}
								}
								JOINT LeftHandPinky1
								{
									OFFSET 10.518692 -0.960396 -5.730441
									CHANNELS 3 Xrotation Yrotation Zrotation
									JOINT LeftHandPinky2
									{
										OFFSET 2.861649 0.000000 0.000000
										CHANNELS 3 Xrotation Yrotation Zrotation
										JOINT LeftHandPinky3
										{
											OFFSET 2.863380 0.000000 0.000000
											CHANNELS 3 Xrotation Yrotation Zrotation
											End Site
											{
												OFFSET -0.843597 2.711159 0.369971
											}
										}
									}
								}
							}
							JOINT LSleeve
							{
								OFFSET 6.676277 -0.344902 -1.011730
								CHANNELS 3 Xrotation Yrotation Zrotation
								End Site
								{
									OFFSET 0.000000 14.885353 0.000000
								}
							}
						}
					}
				}
				JOINT RightShoulder
				{
					OFFSET -6.197800 13.665199 -4.064700
					CHANNELS 3 Xrotation Yrotation Zrotation
					JOINT RightArm
					{
						OFFSET -7.778100 -0.187103 -1.709300
						CHANNELS 3 Xrotation Yrotation Zrotation
						JOINT RightForeArm
						{
							OFFSET -22.049376 0.000000 0.000000
							CHANNELS 3 Xrotation Yrotation Zrotation
							JOINT RightHand
							{
								OFFSET -23.009392 0.000000 0.000000
								CHANNELS 3 Xrotation Yrotation Zrotation
								JOINT RightHandThumb1
								{
									OFFSET -3.507191 -2.063065 3.133727
									CHANNELS 3 Xrotation Yrotation Zrotation
									JOINT RightHandThumb2
									{
										OFFSET -3.101337 -1.790558 1.790558
										CHANNELS 3 Xrotation Yrotation Zrotation
										JOINT RightHandThumb3
										{
											OFFSET -3.058640 -1.765907 1.765906
											CHANNELS 3 Xrotation Yrotation Zrotation
											End Site
											{
												OFFSET 0.415260 3.926476 -0.049563
											}
										}
									}
								}
								JOINT RightHandIndex1
								{
									OFFSET -11.334419 -0.901459 3.706815
									CHANNELS 3 Xrotation Yrotation Zrotation
									JOINT RightHandIndex2
									{
										OFFSET -3.283112 0.000000 0.000000
										CHANNELS 3 Xrotation Yrotation Zrotation
										JOINT RightHandIndex3
										{
											OFFSET -3.323853 0.000000 0.000000
											CHANNELS 3 Xrotation Yrotation Zrotation
											End Site
											{
												OFFSET 1.135597 3.097809 0.402452
											}
										}
									}
								}
								JOINT RightHandMiddle1
								{
									OFFSET -11.335861 0.000000 0.000000
									CHANNELS 3 Xrotation Yrotation Zrotation
									JOINT RightHandMiddle2
									{
										OFFSET -3.410492 0.000000 0.000000
										CHANNELS 3 Xrotation Yrotation Zrotation
										JOINT RightHandMiddle3
										{
											OFFSET -3.312172 0.000000 0.000000
											CHANNELS 3 Xrotation Yrotation Zrotation
											End Site
											{
												OFFSET 1.150200 3.080154 0.400270
											}
										}
									}
								}
								JOINT RightHandRing1
								{
									OFFSET -11.514786 -0.013176 -3.003090
									CHANNELS 3 Xrotation Yrotation Zrotation
									JOINT RightHandRing2
									{
										OFFSET -3.053307 0.000000 0.000000
										CHANNELS 3 Xrotation Yrotation Zrotation
										JOINT RightHandRing3
										{
											OFFSET -3.295807 0.000000 0.000000
											CHANNELS 3 Xrotation Yrotation Zrotation
											End Site
											{
												OFFSET 1.281006 3.013344 0.375733
											}
										}
									}
								}
								JOINT RightHandPinky1
								{
									OFFSET -10.518692 -0.960396 -5.730441
									CHANNELS 3 Xrotation Yrotation Zrotation
									JOINT RightHandPinky2
									{
										OFFSET -2.861649 0.000000 0.000000
										CHANNELS 3 Xrotation Yrotation Zrotation
										JOINT RightHandPinky3
										{
											OFFSET -2.863380 0.000000 0.000000
											CHANNELS 3 Xrotation Yrotation Zrotation
											End Site
											{
												OFFSET 0.843597 2.711159 0.369971
											}
										}
									}
								}
							}
							JOINT RSleeve
							{
								OFFSET -6.676277 -0.344902 -1.011730
								CHANNELS 3 Xrotation Yrotation Zrotation
								End Site
								{
									OFFSET 0.000000 14.885353 0.000000
								}
							}
						}
					}
				}
				JOINT Backpack
				{
					OFFSET 0.000000 -2.471497 36.677502
					CHANNELS 3 Xrotation Yrotation Zrotation
					End Site
					{
						OFFSET 0.000000 20.427315 0.000000
					}
				}
				JOINT Hood
				{
					OFFSET 0.000000 18.754097 -10.431000
					CHANNELS 3 Xrotation Yrotation Zrotation
					JOINT Hood1
					{
						OFFSET 0.000000 -5.011002 -7.685901
						CHANNELS 3 Xrotation Yrotation Zrotation
						End Site
						{
							OFFSET 0.000000 9.175140 0.000000
						}
					}
				}
				JOINT LHoodieString
				{
					OFFSET 5.250500 16.397697 3.089900
					CHANNELS 3 Xrotation Yrotation Zrotation
					JOINT LHoodieString1
					{
						OFFSET 0.257700 -6.364304 3.694600
						CHANNELS 3 Xrotation Yrotation Zrotation
						JOINT LHoodieString2
						{
							OFFSET 0.000000 -9.643799 2.679100
							CHANNELS 3 Xrotation Yrotation Zrotation
							End Site
							{
								OFFSET 0.000000 10.009018 0.000000
							}
						}
					}
				}
				JOINT RHoodieString
				{
					OFFSET -5.250500 16.397697 3.089900
					CHANNELS 3 Xrotation Yrotation Zrotation
					JOINT RHoodieString1
					{
						OFFSET -0.257700 -6.364304 3.694600
						CHANNELS 3 Xrotation Yrotation Zrotation
						JOINT RHoodieString2
						{
							OFFSET 0.000000 -9.643799 2.679100
							CHANNELS 3 Xrotation Yrotation Zrotation
							End Site
							{
								OFFSET 0.000000 10.009018 0.000000
							}
						}
					}
				}
			}
			JOINT LBackpack_Strap
			{
				OFFSET 15.223200 -7.719803 -6.610900
				CHANNELS 3 Xrotation Yrotation Zrotation
				End Site
				{
					OFFSET 0.000000 16.040596 0.000000
				}
			}
			JOINT RBackpack_Strap
			{
				OFFSET -15.223000 -7.719803 -6.610900
				CHANNELS 3 Xrotation Yrotation Zrotation
				End Site
				{
					OFFSET 0.000000 16.040596 0.000000
				}
			}
		}
	}
	JOINT BoyFacialAnim_Joint
	{
		OFFSET 1.000000 -82.208099 -1.550900
		CHANNELS 3 Xrotation Yrotation Zrotation
		End Site
		{
			OFFSET 0.000000 30.012791 0.000000
		}
	}
}
MOTION
Frames: 4
Frame Time: 0.033333
289.667480 83.043930 98.549133 180.440224 163.746709 -175.547295 -0.000000 -0.000002 0.000000 -1.749545 12.430681 -8.530248 22.596147 17.988652 0.300570 4.950082 1.190368 -3.198267 -0.000001 -0.000001 0.000001 -0.000001 -0.000001 -0.000000 -0.000001 0.000003 -0.000001 -29.339935 4.682768 -2.352054 33.278372 14.556723 1.161858 19.769592 -2.056478 -1.757512 0.000001 -0.000001 0.000000 0.000001 -0.000001 0.000000 -0.000000 0.000002 0.000000 -7.938576 -3.801555 -2.462206 -1.221288 -3.487872 -0.894294 -1.192779 -3.508067 -1.045908 15.729543 26.716017 -0.159385 4.047036 27.582722 -2.977926 0.000001 -0.000001 0.000000 0.000001 -0.000001 0.000000 0.000001 -0.000001 0.000000 0.407202 -3.453343 -0.091813 73.770954 -27.089082 -9.418166 354.001929 -97.878421 354.060396 41.767925 -16.274753 63.469615 -29.795563 -31.546011 2.235653 -11.917952 15.901449 -7.458976 0.000002 -0.000003 0.000002 2.245305 2.292274 9.024999 -2.170129 2.466141 -22.409839 -0.000000 0.000004 -0.000001 -2.968494 2.473877 -23.497516 0.266747 5.100699 -36.922579 0.000001 0.000000 -0.000001 -4.973779 10.120584 -20.053285 4.021378 4.055672 -54.087100 -0.000001 -0.000001 -0.000002 -6.458909 11.345958 -53.842327 10.736625 2.571453 -53.855505 0.000000 0.000002 -0.000002 -0.000001 -0.000001 -0.000000 -0.644395 -8.501992 -0.392390 66.399083 46.510204 8.389018 70.824308 55.541869 -67.132147 21.214409 44.989893 -67.365896 4.336494 35.396523 -22.092377 -15.342499 -10.431004 8.158462 -0.000003 -0.000003 0.000002 1.246693 -4.580420 -5.988284 -2.149804 -2.444519 17.128798 -0.000000 -0.000001 0.000005 -2.247539 -4.904053 18.872397 -0.173593 -4.403650 32.215202 -0.000004 0.000001 -0.000000 -5.494697 -8.648695 31.244444 4.015864 -4.069497 50.342377 0.000000 0.000001 0.000002 -8.222575 -12.601638 48.611430 10.731700 -2.575490 58.477211 0.000000 -0.000002 -0.000000 -0.000001 0.000000 -0.000004 -0.000001 -0.000001 -0.000000 -0.000001 -0.000001 -0.000000 -0.000001 -0.000001 -0.000000 -0.000001 -0.000001 -0.000000 -0.000001 -0.000001 -0.000000 -0.000001 -0.000000 0.000000 -0.000001 -0.000001 -0.000000 -0.000001 -0.000001 -0.000000 -0.000001 -0.000000 0.000000 -0.000001 0.000001 0.000000 -0.000001 0.000001 0.000000 -0.000000 -0.000002 0.000000 
289.750366 82.971321 98.378136 180.197056 165.394793 -175.090096 -0.000000 0.000000 -0.000000 -1.483650 11.804537 -9.406373 22.507164 18.658989 0.295946 5.006799 1.155285 -2.925336 0.000001 -0.000003 0.000000 0.000001 -0.000003 -0.000000 -0.000000 0.000003 -0.000001 -29.649639 5.855399 -2.100507 33.712192 14.428874 1.149948 20.165032 -2.243092 -1.648211 -0.000000 0.000002 -0.000001 -0.000000 0.000002 -0.000001 0.000000 0.000003 -0.000000 -7.703283 -3.862703 -2.582638 -1.236192 -3.531804 -0.985269 -1.205865 -3.548705 -1.133092 16.275226 27.239973 -1.020785 4.049611 28.002391 -2.886541 0.000000 0.000002 -0.000001 0.000000 0.000002 -0.000001 0.000000 0.000002 -0.000001 0.430066 -3.388149 -0.095269 73.734399 -26.760114 -9.454927 353.449148 -98.202049 353.517833 41.777569 -15.974371 63.320122 -29.795532 -31.545983 2.235668 -11.917943 15.901462 -7.458985 -0.000000 -0.000003 0.000000 2.245308 2.292309 9.025004 -2.170147 2.466124 -22.409871 0.000002 0.000003 -0.000005 -2.969168 2.472605 -23.564508 0.265784 5.099362 -36.989545 -0.000003 0.000001 0.000002 -4.973789 10.120895 -20.018308 4.021048 4.055403 -54.154056 0.000003 -0.000001 0.000001 -6.459051 11.346738 -53.909174 10.736664 2.570898 -53.820470 -0.000003 0.000000 -0.000000 0.000000 0.000002 0.000000 -0.672429 -8.352212 -0.398011 66.361783 46.817914 8.479580 70.354869 55.482497 -66.576285 21.635934 45.057163 -67.918233 4.337198 35.396380 -22.092064 -15.342510 -10.431038 8.158416 0.000000 0.000001 0.000001 1.246685 -4.580409 -5.988314 -2.149796 -2.444553 17.127997 -0.000002 -0.000000 0.000003 -2.248676 -4.902223 18.939392 -0.174345 -4.402395 32.282264 -0.000001 0.000000 0.000001 -5.496183 -8.646986 31.312729 4.015474 -4.068315 50.407220 -0.000001 0.000000 -0.000001 -8.224813 -12.603775 48.677508 10.731247 -2.575357 58.541681 0.000000 0.000001 -0.000001 -0.000001 0.000000 -0.000004 0.000000 -0.000000 0.000000 0.000000 -0.000000 0.000000 0.000000 -0.000000 0.000000 0.000000 -0.000000 0.000000 0.000000 -0.000000 0.000000 0.000001 -0.000000 0.000000 0.000000 -0.000000 0.000000 0.000000 -0.000000 0.000000 0.000001 -0.000000 0.000000 0.000000 -0.000000 0.000000 0.000000 -0.000000 0.000000 -0.000000 0.000000 -0.000000 
289.907013 82.902100 98.210808 180.269319 166.527798 -174.638703 0.000000 -0.000000 0.000000 -1.588130 10.547718 -10.490563 22.255150 20.393312 0.316843 5.153363 1.189313 -2.940501 0.000003 -0.000001 -0.000000 0.000003 -0.000001 -0.000000 0.000003 -0.000001 0.000002 -30.198913 6.739532 -2.211259 34.190192 14.581853 1.161961 20.311161 -2.370749 -1.540580 0.000000 -0.000000 0.000001 0.000000 -0.000000 0.000001 -0.000000 0.000002 -0.000000 -7.774199 -3.877271 -2.482472 -1.288853 -3.544698 -1.185964 -1.265606 -3.553013 -1.334116 16.943556 27.626414 -2.000756 4.184820 28.276244 -2.804690 0.000000 0.000000 -0.000000 0.000000 0.000000 -0.000000 0.000000 0.000000 -0.000000 0.460174 -3.177648 -0.099955 73.801683 -26.445092 -9.280078 354.365650 -98.417685 354.428215 41.776241 -15.988815 63.036226 -29.795522 -31.545973 2.235699 -11.917978 15.901444 -7.458984 -0.000005 0.000001 0.000001 2.245309 2.292298 9.025021 -2.170132 2.466134 -22.409849 0.000001 0.000001 -0.000005 -2.969307 2.471132 -23.571002 0.264389 5.097985 -36.995870 0.000000 -0.000000 0.000002 -4.973787 10.120876 -19.990231 4.020512 4.054546 -54.160361 -0.000000 -0.000001 -0.000002 -6.459401 11.347507 -53.915410 10.736263 2.570178 -53.792265 0.000000 0.000002 -0.000002 0.000001 -0.000002 -0.000003 -0.666357 -7.976012 -0.385199 66.888357 47.040930 8.117317 69.801883 55.827145 -66.027589 21.892389 44.791588 -68.402965 4.337859 35.396219 -22.091755 -15.342481 -10.431080 8.158439 -0.000001 0.000001 0.000000 1.246667 -4.580435 -5.988315 -2.149795 -2.444600 17.127174 -0.000003 -0.000002 0.000003 -2.249491 -4.900628 18.945922 -0.174852 -4.401192 32.288773 0.000001 0.000001 0.000002 -5.497860 -8.644341 31.321014 4.014902 -4.066652 50.410969 -0.000001 -0.000001 0.000002 -8.228112 -12.605411 48.682771 10.730001 -2.575033 58.545076 0.000001 0.000001 0.000002 0.000002 0.000001 0.000001 -0.000000 -0.000000 -0.000000 -0.000000 -0.000000 -0.000000 -0.000000 -0.000000 -0.000000 -0.000000 -0.000000 -0.000000 -0.000000 -0.000000 -0.000000 0.000001 0.000000 -0.000000 -0.000000 -0.000000 -0.000000 -0.000000 -0.000000 -0.000000 0.000001 0.000000 -0.000000 -0.000000 -0.000000 -0.000000 -0.000000 -0.000000 -0.000000 0.000000 -0.000000 0.000000 
290.022736 82.873543 98.109825 180.154859 166.751678 -174.464205 -0.000000 -0.000001 -0.000000 -1.506609 10.300531 -10.891873 22.188657 20.736403 0.386828 5.184018 1.184234 -2.846793 -0.000000 0.000000 -0.000001 -0.000000 0.000000 -0.000000 -0.000000 0.000001 0.000000 -30.196160 7.195002 -2.331652 34.341139 14.721911 1.174294 20.169923 -2.415061 -1.343785 -0.000001 -0.000001 -0.000001 -0.000001 -0.000001 -0.000001 -0.000000 0.000003 -0.000000 -7.660468 -3.947719 -2.216033 -1.312134 -3.616461 -1.309105 -1.296472 -3.619793 -1.456834 17.556829 27.805784 -2.912434 4.431179 28.364189 -2.811007 0.000001 -0.000002 -0.000000 0.000001 -0.000002 -0.000000 0.000001 -0.000002 -0.000000 0.481418 -3.100288 -0.101239 74.048929 -26.361279 -9.024921 354.521707 -98.432452 354.582850 41.746840 -15.773115 63.381758 -29.795525 -31.545963 2.235672 -11.917964 15.901445 -7.458968 0.000002 -0.000002 0.000001 2.245307 2.292296 9.024995 -2.170127 2.466126 -22.409868 -0.000002 -0.000000 -0.000002 -2.969473 2.470177 -23.585770 0.263949 5.096615 -37.010538 0.000003 -0.000002 0.000002 -4.973789 10.120353 -19.969380 4.020044 4.054073 -54.174981 -0.000000 -0.000001 -0.000002 -6.459737 11.348107 -53.929951 10.735410 2.569125 -53.771159 0.000003 -0.000000 -0.000000 0.000001 -0.000003 0.000002 -0.647433 -7.564504 -0.367234 67.113705 47.043543 7.859146 69.574984 56.216869 -65.865884 22.208550 44.485668 -68.602304 4.338646 35.396038 -22.091340 -15.342470 -10.431099 8.158420 -0.000001 0.000000 0.000003 1.246716 -4.580418 -5.988319 -2.149791 -2.444633 17.125899 -0.000001 0.000000 0.000002 -2.250009 -4.899061 18.960805 -0.176538 -4.399570 32.303602 0.000002 0.000001 -0.000002 -5.499757 -8.639825 31.340050 4.014472 -4.065704 50.419360 -0.000001 0.000001 0.000001 -8.232529 -12.609275 48.695386 10.729002 -2.574759 58.551879 0.000001 0.000000 -0.000003 -0.000000 -0.000001 -0.000003 -0.000000 -0.000000 0.000000 -0.000000 -0.000000 0.000000 -0.000000 -0.000000 0.000000 -0.000000 -0.000000 0.000000 -0.000000 -0.000000 0.000000 -0.000000 0.000000 0.000000 -0.000000 -0.000000 0.000000 -0.000000 -0.000000 0.000000 -0.000000 0.000000 0.000000 0.000000 0.000001 0.000000 0.000000 0.000001 0.000000 -0.000000 -0.000001 -0.000000 
